<?xml version="1.0" standalone="no"?>
<!DOCTYPE svg PUBLIC "-//W3C//DTD SVG 1.1//EN" "http://www.w3.org/Graphics/SVG/1.1/DTD/svg11.dtd" >
<svg xmlns="http://www.w3.org/2000/svg">
<metadata></metadata>
<defs>
<font id="futura_ltlight" horiz-adv-x="1270" >
<font-face units-per-em="2048" ascent="1556" descent="-492" />
<missing-glyph horiz-adv-x="635" />
<glyph horiz-adv-x="0" />
<glyph unicode="&#xd;" horiz-adv-x="635" />
<glyph unicode=" "  horiz-adv-x="635" />
<glyph unicode="&#x09;" horiz-adv-x="635" />
<glyph unicode="&#xa0;" horiz-adv-x="635" />
<glyph unicode="!" horiz-adv-x="655" d="M240 68q0 36 25.5 62t62.5 26t62.5 -26t25.5 -62q0 -37 -25.5 -62.5t-62.5 -25.5t-62.5 25.5t-25.5 62.5zM279 344v1200h98v-1200h-98z" />
<glyph unicode="&#x22;" horiz-adv-x="569" d="M102 975v569h93v-569h-93zM375 975v569h92v-569h-92z" />
<glyph unicode="#" d="M25 535l18 53h295l127 362h-328l17 54h329l187 540h71l-182 -540h332l186 540h72l-182 -540h278l-18 -54h-279l-129 -362h311l-18 -53h-309l-187 -535h-75l190 535h-334l-190 -535h-72l184 535h-294zM416 588h329l127 362h-333z" />
<glyph unicode="$" d="M164 283l90 47q39 -103 126 -168t193 -70v713q-186 91 -266 181.5t-80 211.5q0 138 99.5 239t246.5 107v146h74v-145q94 -4 166 -43.5t125 -117.5l-78 -59q-37 56 -92 89t-121 38v-578q204 -97 289.5 -201t85.5 -255q0 -179 -103.5 -295.5t-271.5 -122.5v-215h-74v215 q-135 4 -238.5 75.5t-170.5 207.5zM326 1202q0 -90 58.5 -159.5t188.5 -133.5v543q-107 -6 -177 -79t-70 -171zM647 92q127 6 202 94t75 228q0 114 -67.5 200.5t-209.5 155.5v-678z" />
<glyph unicode="%" horiz-adv-x="1360" d="M82 1243q0 134 91 228t220 94t220.5 -94t91.5 -228q0 -133 -91.5 -227t-220.5 -94t-220 94t-91 227zM168 1243q0 -100 66 -171t159 -71q94 0 159.5 71t65.5 171t-65.5 171t-159.5 71q-93 0 -159 -71t-66 -171zM199 0l874 1544h88l-874 -1544h-88zM655 301q0 134 91.5 228 t220.5 94t220 -94t91 -228q0 -133 -91 -227t-220 -94t-220.5 94t-91.5 227zM741 301q0 -100 66 -171t160 -71q93 0 159 71t66 171t-66 171t-159 71q-94 0 -160 -71t-66 -171z" />
<glyph unicode="&#x26;" horiz-adv-x="1315" d="M51 397q0 130 93 243.5t313 250.5l-82 104q-66 86 -92.5 153t-26.5 136q0 125 82 203t223 78q133 0 218 -82t85 -207q0 -113 -64 -205.5t-214 -191.5l401 -508q49 61 94.5 131t87.5 147l74 -43q-51 -93 -100.5 -169t-98.5 -136l238 -301h-119l-182 229 q-116 -125 -238.5 -187t-253.5 -62q-194 0 -316 117t-122 300zM150 383q0 -140 97.5 -228.5t248.5 -88.5q108 0 216 58.5t214 174.5l-418 528q-209 -138 -283.5 -226t-74.5 -218zM348 1280q0 -52 28 -112t87 -136l72 -90q131 90 184 162.5t53 171.5q0 90 -58.5 146.5 t-152.5 56.5q-98 0 -155.5 -54.5t-57.5 -144.5z" />
<glyph unicode="'" horiz-adv-x="455" d="M180 975v569h94v-569h-94z" />
<glyph unicode="(" horiz-adv-x="492" d="M102 561q0 290 65.5 544t197.5 478l75 -39q-124 -215 -184.5 -457.5t-60.5 -525.5q0 -284 60 -525t185 -458l-75 -39q-132 224 -197.5 478t-65.5 544z" />
<glyph unicode=")" horiz-adv-x="492" d="M51 -422q125 217 185.5 458t60.5 525q0 283 -60.5 525.5t-185.5 457.5l76 39q132 -224 197 -478t65 -544t-65 -544t-197 -478z" />
<glyph unicode="*" horiz-adv-x="1268" d="M283 1004l286 159l-286 160l45 72l274 -176l-10 325h84l-10 -325l274 176l45 -72l-287 -160l287 -159l-45 -72l-274 176l10 -326h-84l10 326l-274 -176z" />
<glyph unicode="+" d="M102 510v86h488v510h90v-510h487v-86h-487v-510h-90v510h-488z" />
<glyph unicode="," horiz-adv-x="635" d="M82 -342l219 553l123 -57l-285 -523z" />
<glyph unicode="-" horiz-adv-x="389" d="M0 512v92h389v-92h-389z" />
<glyph unicode="." horiz-adv-x="635" d="M229 68q0 36 26 62t62 26q37 0 63 -26t26 -62q0 -37 -26 -62.5t-63 -25.5q-36 0 -62 25.5t-26 62.5z" />
<glyph unicode="/" horiz-adv-x="1311" d="M0 -254l1157 1964l72 -53l-1157 -1964z" />
<glyph unicode="0" d="M102 772q0 363 146 578t387 215t386.5 -214.5t145.5 -578.5q0 -366 -146 -579t-390 -213q-235 0 -382 216t-147 576zM201 770q0 -315 118.5 -506.5t315.5 -191.5q204 0 319 185t115 517q0 327 -117 513t-321 186q-194 0 -312 -192.5t-118 -510.5z" />
<glyph unicode="1" d="M303 1452l49 92h344v-1544h-98v1452h-295z" />
<glyph unicode="2" d="M135 0l529 565q178 191 250.5 314.5t72.5 246.5q0 154 -102.5 250.5t-274.5 96.5q-163 0 -265 -104.5t-104 -272.5h-97q1 213 130 341t344 128q212 0 339.5 -121.5t127.5 -315.5q0 -134 -65.5 -259.5t-310.5 -389.5l-361 -387h731v-92h-944z" />
<glyph unicode="3" d="M158 371h98q15 -141 110 -220t252 -79q176 0 267.5 93t91.5 267q0 166 -106 250t-316 84v92q205 0 296 75t91 238q0 134 -83.5 218t-223.5 84q-133 0 -214.5 -61.5t-101.5 -176.5h-98q25 156 133.5 243t280.5 87q190 0 297.5 -105.5t107.5 -283.5q0 -138 -71 -239 t-191 -126q133 -19 215 -123.5t82 -255.5q0 -208 -121.5 -330t-335.5 -122q-211 0 -330.5 101t-129.5 290z" />
<glyph unicode="4" d="M10 373l895 1208v-1114h262v-94h-262v-373h-98v373h-797zM182 467h625v840z" />
<glyph unicode="5" d="M92 252l82 55q72 -123 163.5 -179t221.5 -56q187 0 307.5 119t120.5 309q0 188 -117 310t-303 122q-113 0 -199 -27.5t-153 -85.5l191 725h600v-92h-529l-129 -469q41 21 96 31t123 10q232 0 375 -146t143 -378q0 -231 -149 -375.5t-383 -144.5q-156 0 -269.5 67 t-191.5 205z" />
<glyph unicode="6" d="M106 502q0 114 57.5 231.5t225.5 347.5l354 484l78 -62l-399 -536q36 24 98 40.5t115 16.5q218 0 373 -153t155 -369q0 -217 -155 -369.5t-373 -152.5t-373.5 152.5t-155.5 369.5zM205 502q0 -178 126 -304t304 -126t304 126t126 304t-126 304t-304 126t-304 -126 t-126 -304z" />
<glyph unicode="7" d="M129 1452v92h1079l-936 -1564l-82 55l852 1417h-913z" />
<glyph unicode="8" d="M180 416q0 130 75.5 235.5t201.5 155.5q-107 48 -169.5 143t-62.5 211q0 167 120.5 285.5t289.5 118.5t289 -118.5t120 -285.5q0 -116 -62.5 -211t-168.5 -143q126 -50 201.5 -155.5t75.5 -235.5q0 -180 -134 -308t-321 -128t-321 128t-134 308zM279 416 q0 -142 104.5 -243t251.5 -101t251.5 101t104.5 243q0 141 -104.5 241.5t-251.5 100.5t-251.5 -100.5t-104.5 -241.5zM324 1161q0 -131 90.5 -221t220.5 -90t220.5 90t90.5 221t-90.5 221.5t-220.5 90.5t-220.5 -90.5t-90.5 -221.5z" />
<glyph unicode="9" d="M106 1042q0 217 155.5 370t373.5 153t373 -153t155 -370q0 -114 -57 -231.5t-225 -347.5l-355 -483l-77 61l399 537q-36 -25 -98 -41.5t-115 -16.5q-218 0 -373.5 153t-155.5 369zM205 1042q0 -178 126 -304t304 -126t304 126t126 304q0 179 -126 305t-304 126t-304 -126 t-126 -305z" />
<glyph unicode=":" horiz-adv-x="635" d="M229 68q0 36 26 62t62 26q37 0 63 -26t26 -62q0 -37 -26 -62.5t-63 -25.5q-36 0 -62 25.5t-26 62.5zM229 879q0 36 26 62t62 26q37 0 63 -26t26 -62q0 -37 -26 -62.5t-63 -25.5q-36 0 -62 25.5t-26 62.5z" />
<glyph unicode=";" horiz-adv-x="635" d="M82 -342l219 553l123 -57l-285 -523zM229 879q0 36 26 62t62 26q37 0 63 -26t26 -62q0 -37 -26 -62.5t-63 -25.5q-36 0 -62 25.5t-26 62.5z" />
<glyph unicode="&#x3c;" d="M123 522v66l1024 493v-94l-905 -432l905 -432v-94z" />
<glyph unicode="=" d="M123 326v86h1024v-86h-1024zM123 698v86h1024v-86h-1024z" />
<glyph unicode="&#x3e;" d="M123 29v94l905 432l-905 432v94l1024 -493v-66z" />
<glyph unicode="?" horiz-adv-x="1006" d="M141 1182q0 184 96.5 283.5t276.5 99.5q160 0 255 -89.5t95 -240.5q0 -131 -74.5 -223.5t-248.5 -180.5q-141 -70 -190.5 -122.5t-49.5 -145.5q0 -78 54.5 -126t146.5 -48q98 0 151.5 51t53.5 144h98q0 -135 -81 -211t-222 -76q-138 0 -218.5 73.5t-80.5 194.5 q0 112 68 192t225 154q146 71 208 143t62 173q0 110 -70.5 178t-187.5 68q-128 0 -196.5 -75t-72.5 -216h-98zM399 68q0 36 26 62t62 26q37 0 62.5 -26t25.5 -62q0 -37 -25.5 -62.5t-62.5 -25.5q-36 0 -62 25.5t-26 62.5z" />
<glyph unicode="@" horiz-adv-x="1638" d="M82 717q0 377 218 612.5t566 235.5q302 0 496 -178t194 -461q0 -252 -114 -395.5t-316 -143.5q-71 0 -110 38t-39 107q-37 -67 -102.5 -106t-137.5 -39q-125 0 -191.5 77t-66.5 222q0 209 110.5 356.5t264.5 147.5q74 0 129.5 -39.5t77.5 -106.5l45 107h76l-111 -510 q-6 -29 -9 -54.5t-3 -43.5q0 -39 20 -56.5t66 -17.5q148 0 233.5 119.5t85.5 326.5q0 249 -167.5 406.5t-430.5 157.5q-313 0 -502.5 -207.5t-189.5 -554.5q0 -298 177.5 -474.5t475.5 -176.5q139 0 264.5 41t227.5 120l49 -65q-105 -90 -242 -136t-297 -46q-325 0 -536 202 t-211 535zM571 682q0 -104 44 -158.5t128 -54.5q92 0 163.5 74t97.5 196l36 181q-17 92 -63.5 140t-120.5 48q-122 0 -203.5 -121t-81.5 -305z" />
<glyph unicode="A" horiz-adv-x="1313" d="M18 0l639 1581l639 -1581h-104l-213 537h-643l-213 -537h-105zM373 629h569l-285 721z" />
<glyph unicode="B" horiz-adv-x="1157" d="M184 0v1544h316q237 0 356 -97.5t119 -293.5q0 -146 -70.5 -228.5t-220.5 -119.5q176 -25 272.5 -126t96.5 -255q0 -216 -130 -320t-401 -104h-338zM283 92h237q233 0 333.5 78t100.5 244q0 168 -120 256t-351 88h-200v-666zM283 850h163q225 0 328 70t103 223 q0 164 -91 236.5t-299 72.5h-204v-602z" />
<glyph unicode="C" horiz-adv-x="1513" d="M111 774q0 343 227 567t571 224q141 0 260.5 -38t221.5 -114v-113q-113 89 -226 131t-241 42q-315 0 -515 -195t-200 -504t196.5 -505.5t497.5 -196.5q129 0 254 41t234 118v-114q-105 -65 -233 -101t-249 -36q-350 0 -574 221.5t-224 572.5z" />
<glyph unicode="D" horiz-adv-x="1335" d="M174 0v1544h217q416 0 634 -201t218 -573q0 -389 -216.5 -579.5t-664.5 -190.5h-188zM272 92h74q426 0 612.5 163t186.5 517q0 335 -195 507.5t-575 172.5h-103v-1360z" />
<glyph unicode="E" horiz-adv-x="1038" d="M174 0v1544h727v-92h-629v-543h629v-92h-629v-725h629v-92h-727z" />
<glyph unicode="F" horiz-adv-x="909" d="M174 0v1544h641v-92h-543v-543h543v-92h-543v-817h-98z" />
<glyph unicode="G" horiz-adv-x="1688" d="M86 772q0 347 214 570t548 223q221 0 369.5 -72.5t269.5 -239.5l-74 -65q-99 143 -237.5 214t-317.5 71q-299 0 -486.5 -199.5t-187.5 -515.5q0 -295 192 -490.5t482 -195.5q280 0 460.5 168t180.5 424h-549v92h652q0 -366 -196.5 -571t-545.5 -205q-345 0 -559.5 219.5 t-214.5 572.5z" />
<glyph unicode="H" horiz-adv-x="1466" d="M174 0v1544h98v-641h922v641h98v-1544h-98v811h-922v-811h-98z" />
<glyph unicode="I" horiz-adv-x="430" d="M166 0v1544h98v-1544h-98z" />
<glyph unicode="J" horiz-adv-x="446" d="M-248 -170l80 55q29 -58 76 -89.5t106 -31.5q102 0 136 70t34 244v1466h99v-1495q0 -191 -66.5 -284t-202.5 -93q-87 0 -154 40.5t-108 117.5z" />
<glyph unicode="K" horiz-adv-x="1165" d="M174 0v1544h98v-733l744 733h127l-754 -737l789 -807h-142l-764 795v-795h-98z" />
<glyph unicode="L" horiz-adv-x="670" d="M174 0v1544h98v-1452h377v-92h-475z" />
<glyph unicode="M" horiz-adv-x="1837" d="M98 0l205 1581l617 -1399l614 1401l205 -1583h-105l-149 1233l-565 -1270l-568 1270l-149 -1233h-105z" />
<glyph unicode="N" horiz-adv-x="1726" d="M184 0v1581l1260 -1362v1325h98v-1581l-1259 1364v-1327h-99z" />
<glyph unicode="O" horiz-adv-x="1749" d="M78 772q0 338 228 565.5t566 227.5q339 0 569 -227.5t230 -565.5q0 -331 -233 -561.5t-566 -230.5q-330 0 -562 230.5t-232 561.5zM176 772q0 -295 201.5 -497.5t494.5 -202.5q294 0 497.5 203t203.5 497q0 295 -203.5 498t-497.5 203q-292 0 -494 -203t-202 -498z" />
<glyph unicode="P" horiz-adv-x="967" d="M174 0v1544h178q279 0 406 -100.5t127 -310.5q0 -207 -129.5 -305.5t-403.5 -98.5h-80v-729h-98zM272 821h80q235 0 334.5 73t99.5 239t-101 242.5t-333 76.5h-80v-631z" />
<glyph unicode="Q" horiz-adv-x="1749" d="M78 772q0 338 228 565.5t566 227.5q339 0 569 -227.5t230 -565.5q0 -166 -65 -316t-185 -261l242 -283h-117l-192 225q-102 -77 -225.5 -117t-256.5 -40q-330 0 -562 230.5t-232 561.5zM176 772q0 -295 201.5 -497.5t494.5 -202.5q115 0 222 35t198 102l-346 405h117 l297 -348q102 100 157.5 230.5t55.5 275.5q0 295 -203.5 498t-497.5 203q-292 0 -494 -203t-202 -498z" />
<glyph unicode="R" horiz-adv-x="999" d="M174 0v1544h227q239 0 365.5 -106t126.5 -301q0 -177 -123.5 -276t-349.5 -99l549 -762h-123l-539 762h-35v-762h-98zM272 854h127q205 0 300.5 69t95.5 218q0 156 -98.5 233.5t-297.5 77.5h-127v-598z" />
<glyph unicode="S" horiz-adv-x="1114" d="M98 260l84 43q40 -109 129.5 -170t208.5 -61q166 0 261.5 90.5t95.5 249.5q0 119 -77 206t-253 170q-219 102 -302 191t-83 238q0 155 107.5 251.5t281.5 96.5q106 0 186 -42.5t133 -127.5l-77 -56q-40 65 -105 99.5t-147 34.5q-131 0 -206 -69t-75 -190q0 -96 49 -158.5 t174 -129.5q33 -18 100 -51q392 -193 392 -463q0 -197 -127 -314.5t-336 -117.5q-146 0 -255 73.5t-159 206.5z" />
<glyph unicode="T" horiz-adv-x="922" d="M41 1452v92h840v-92h-371v-1452h-98v1452h-371z" />
<glyph unicode="U" horiz-adv-x="1352" d="M164 573v971h98v-997q0 -250 99 -362.5t315 -112.5q215 0 314.5 112.5t99.5 362.5v997h98v-971q0 -316 -121 -454.5t-391 -138.5q-271 0 -391.5 138.5t-120.5 454.5z" />
<glyph unicode="V" horiz-adv-x="1137" d="M-10 1544h108l469 -1313l471 1313h109l-580 -1581z" />
<glyph unicode="W" horiz-adv-x="2263" d="M49 1544h109l481 -1313l491 1350l494 -1350l481 1313h109l-590 -1581l-494 1340l-491 -1340z" />
<glyph unicode="X" horiz-adv-x="1012" d="M47 0l402 821l-363 723h107l317 -631l317 631h107l-371 -737l404 -807h-107l-358 715l-348 -715h-107z" />
<glyph unicode="Y" horiz-adv-x="1145" d="M20 1544h107l451 -735l440 735h106l-497 -823v-721h-99v721z" />
<glyph unicode="Z" horiz-adv-x="1163" d="M41 0l893 1452h-795v92h963l-889 -1452h829v-92h-1001z" />
<glyph unicode="[" horiz-adv-x="614" d="M227 -424v1968h301v-86h-209v-1796h209v-86h-301z" />
<glyph unicode="\" horiz-adv-x="1311" d="M82 1657l72 53l1157 -1964l-72 -53z" />
<glyph unicode="]" horiz-adv-x="614" d="M86 -338h209v1796h-209v86h301v-1968h-301v86z" />
<glyph unicode="^" d="M221 866l363 678h102l363 -678h-86l-328 586l-328 -586h-86z" />
<glyph unicode="_" horiz-adv-x="1024" d="M0 -225h1024v-88h-1024v88z" />
<glyph unicode="`" horiz-adv-x="641" d="M131 1356l66 49l223 -318l-53 -40z" />
<glyph unicode="a" horiz-adv-x="1147" d="M92 463q0 225 122.5 364.5t315.5 139.5q140 0 225.5 -46.5t145.5 -154.5v180h92v-946h-92v180q-64 -103 -152.5 -151.5t-211.5 -48.5q-198 0 -321.5 133t-123.5 350zM184 465q0 -183 99.5 -291t265.5 -108q161 0 256.5 111t95.5 298t-99.5 296.5t-264.5 109.5 q-157 0 -255 -114.5t-98 -301.5z" />
<glyph unicode="b" horiz-adv-x="1147" d="M154 0v1690h92v-924q55 99 149 150t221 51q194 0 316.5 -139.5t122.5 -364.5q0 -217 -123.5 -350t-321.5 -133q-123 0 -211.5 48.5t-152.5 151.5v-180h-92zM246 475q0 -187 97.5 -298t258.5 -111q165 0 263 107.5t98 291.5q0 187 -98 301.5t-255 114.5q-170 0 -267 -108 t-97 -298z" />
<glyph unicode="c" horiz-adv-x="977" d="M92 467q0 223 141.5 361.5t368.5 138.5q76 0 144 -17.5t133 -52.5v-94q-65 38 -135.5 58t-143.5 20q-192 0 -304 -113.5t-112 -308.5q0 -172 116.5 -282.5t299.5 -110.5q85 0 158 19.5t137 59.5v-96q-68 -35 -148 -52t-172 -17q-212 0 -347.5 136.5t-135.5 350.5z" />
<glyph unicode="d" horiz-adv-x="1147" d="M92 463q0 225 122.5 364.5t315.5 139.5q148 0 229.5 -47t141.5 -154v924h92v-1690h-92v180q-64 -103 -152.5 -151.5t-211.5 -48.5q-198 0 -321.5 133t-123.5 350zM184 465q0 -183 99.5 -291t265.5 -108q161 0 256.5 111t95.5 298t-99.5 296.5t-264.5 109.5 q-157 0 -255 -114.5t-98 -301.5z" />
<glyph unicode="e" horiz-adv-x="1044" d="M82 479q0 214 125 351t315 137q199 0 320 -125t121 -336v-27h-789q3 -199 94 -306t254 -107q116 0 199 51t137 155l80 -41q-70 -129 -171 -190t-245 -61q-206 0 -323 134t-117 365zM180 565l684 1q-9 141 -102.5 228t-239.5 87q-136 0 -232.5 -87.5t-109.5 -228.5z" />
<glyph unicode="f" horiz-adv-x="492" d="M31 860v86h139v387q0 202 53 289.5t178 87.5q26 0 46.5 -4t44.5 -14l-1 -92q-25 12 -44.5 18t-36.5 6q-85 0 -116.5 -57.5t-31.5 -227.5v-393h199v-86h-199v-860h-92v860h-139z" />
<glyph unicode="g" horiz-adv-x="1161" d="M92 463q0 225 122.5 364.5t315.5 139.5q140 0 225.5 -46.5t145.5 -154.5v180h92v-995q0 -262 -107 -383t-337 -121q-174 0 -277 67.5t-135 202.5h99q24 -94 100.5 -139t216.5 -45q186 0 267 94t81 303v250q-64 -103 -152.5 -151.5t-211.5 -48.5q-198 0 -321.5 133 t-123.5 350zM184 465q0 -183 99.5 -291t265.5 -108q161 0 256.5 111t95.5 298t-99.5 296.5t-264.5 109.5q-157 0 -255 -114.5t-98 -301.5z" />
<glyph unicode="h" horiz-adv-x="1004" d="M154 0v1690h92v-902q47 101 115.5 140t189.5 39q139 0 219 -90.5t80 -251.5v-625h-92v588q0 154 -54.5 223.5t-177.5 69.5q-145 0 -212.5 -102t-67.5 -324v-455h-92z" />
<glyph unicode="i" horiz-adv-x="479" d="M158 1290q0 34 24 58t58 24q33 0 57.5 -24t24.5 -58t-24.5 -58t-57.5 -24q-34 0 -58 24t-24 58zM195 0v946h92v-946h-92z" />
<glyph unicode="j" horiz-adv-x="479" d="M158 1290q0 34 24 58t58 24q33 0 57.5 -24t24.5 -58t-24.5 -58t-57.5 -24q-34 0 -58 24t-24 58zM195 -532v1478h92v-1478h-92z" />
<glyph unicode="k" horiz-adv-x="874" d="M154 0v1690h92v-1168l463 424h120l-477 -434l522 -512h-131l-497 496v-496h-92z" />
<glyph unicode="l" horiz-adv-x="408" d="M158 0v1690h92v-1690h-92z" />
<glyph unicode="m" horiz-adv-x="1485" d="M154 0v946h92v-143q31 80 98.5 122t167.5 42q88 0 154 -44t96 -124q33 85 100 126.5t172 41.5q124 0 200.5 -92t76.5 -250v-625h-92v588q0 149 -49 221t-152 72q-128 0 -179 -80t-51 -326v-475h-92v588q0 155 -46 224t-154 69q-134 0 -192 -99.5t-58 -326.5v-455h-92z " />
<glyph unicode="n" horiz-adv-x="1004" d="M154 0v946h92v-158q45 94 117 136.5t184 42.5q140 0 221.5 -91t81.5 -251v-625h-92v588q0 154 -54.5 223.5t-177.5 69.5q-145 0 -212.5 -102t-67.5 -324v-455h-92z" />
<glyph unicode="o" horiz-adv-x="1120" d="M70 477q0 206 141.5 348t345.5 142q209 0 351.5 -141.5t142.5 -348.5t-144 -352t-350 -145q-202 0 -344.5 145t-142.5 352zM162 475q0 -172 116.5 -290.5t282.5 -118.5t281.5 118.5t115.5 290.5t-114.5 289t-282.5 117t-283.5 -116.5t-115.5 -289.5z" />
<glyph unicode="p" horiz-adv-x="1147" d="M154 -532v1478h92v-170q58 95 149.5 143t214.5 48q198 0 321.5 -133.5t123.5 -350.5q0 -225 -122.5 -364t-316.5 -139q-128 0 -218.5 51.5t-151.5 158.5v-722h-92zM246 492q0 -192 101.5 -309t262.5 -117q157 0 255 114t98 301q0 183 -99.5 291.5t-265.5 108.5 q-165 0 -258.5 -103t-93.5 -286z" />
<glyph unicode="q" horiz-adv-x="1147" d="M92 483q0 217 123.5 350.5t321.5 133.5q128 0 215 -46t149 -145v170h92v-1478h-92v722q-58 -103 -152 -156.5t-219 -53.5q-193 0 -315.5 139t-122.5 364zM184 481q0 -187 98 -301t255 -114q162 0 263 117t101 309q0 183 -93.5 286t-258.5 103q-166 0 -265.5 -108.5 t-99.5 -291.5z" />
<glyph unicode="r" horiz-adv-x="569" d="M164 0v946h92v-151q33 91 90 131.5t150 40.5q25 0 48.5 -5.5t41.5 -15.5l-31 -86q-14 10 -35 15.5t-43 5.5q-114 0 -167.5 -115.5t-53.5 -355.5v-410h-92z" />
<glyph unicode="s" horiz-adv-x="768" d="M39 160l84 47q34 -73 93.5 -107t152.5 -34q99 0 162 47t63 125q0 85 -50 127t-198 94q-119 42 -182.5 109.5t-63.5 156.5q0 111 72.5 176.5t200.5 65.5q93 0 156.5 -40t103.5 -122l-84 -45q-29 63 -73 92t-111 29q-78 0 -125 -43t-47 -113q0 -62 46 -108t140 -76 q169 -56 238 -120.5t69 -172.5q0 -123 -89 -195.5t-243 -72.5q-112 0 -194.5 47t-120.5 133z" />
<glyph unicode="t" horiz-adv-x="428" d="M31 860v86h131v406h92v-406h174v-86h-174v-860h-92v860h-131z" />
<glyph unicode="u" horiz-adv-x="967" d="M154 391v555h92v-528q0 -189 52.5 -270.5t184.5 -81.5q135 0 186.5 80t51.5 272v528h92v-555q0 -218 -78.5 -314.5t-251.5 -96.5q-171 0 -250 99t-79 312z" />
<glyph unicode="v" horiz-adv-x="887" d="M16 946h103l325 -774l324 774h102l-426 -983z" />
<glyph unicode="w" horiz-adv-x="1540" d="M16 946h103l321 -768l330 805l332 -805l319 768h103l-426 -983l-328 797l-326 -797z" />
<glyph unicode="x" horiz-adv-x="907" d="M20 0l383 494l-348 452h105l299 -393l286 393h107l-342 -452l377 -494h-107l-325 434l-328 -434h-107z" />
<glyph unicode="y" horiz-adv-x="942" d="M16 946h103l373 -774l331 774h103l-654 -1478h-102l270 600z" />
<glyph unicode="z" horiz-adv-x="983" d="M59 0l668 860h-616v86h792l-667 -860h677v-86h-854z" />
<glyph unicode="{" horiz-adv-x="614" d="M76 518v86q117 0 151.5 37t34.5 158v458q0 186 53 236.5t224 50.5v-86q-126 0 -155.5 -26t-29.5 -148v-440q0 -160 -28 -214t-117 -69q89 -15 117 -70t28 -212v-443q0 -121 29.5 -147.5t155.5 -26.5v-86q-171 0 -224 50.5t-53 236.5v461q0 122 -34.5 158t-151.5 36z" />
<glyph unicode="|" horiz-adv-x="655" d="M281 -504v2048h94v-2048h-94z" />
<glyph unicode="}" horiz-adv-x="614" d="M76 -338q125 0 154.5 26.5t29.5 147.5v443q0 159 28 213t118 69q-89 15 -117.5 70t-28.5 213v440q0 122 -29.5 148t-154.5 26v86q171 0 223.5 -50.5t52.5 -236.5v-458q0 -122 34.5 -158.5t152.5 -36.5v-86q-117 0 -152 -37t-35 -157v-461q0 -186 -52.5 -236.5 t-223.5 -50.5v86z" />
<glyph unicode="~" d="M174 436v103q68 72 133.5 107.5t130.5 35.5q70 0 192 -67l4 -2q11 -6 29 -16q111 -60 171 -60q56 0 118.5 39t143.5 126v-102q-70 -74 -134 -109.5t-128 -35.5q-68 0 -186 63q-10 6 -16 9t-19 10q-114 63 -175 63q-58 0 -122 -39.5t-142 -124.5z" />
<glyph unicode="&#xa1;" horiz-adv-x="655" d="M240 1477q0 36 25.5 62t62.5 26t62.5 -26t25.5 -62q0 -37 -25.5 -62.5t-62.5 -25.5t-62.5 25.5t-25.5 62.5zM279 0v1200h98v-1200h-98z" />
<glyph unicode="&#xa2;" d="M205 780q0 207 129.5 344t339.5 154v170h74v-168q74 -2 140.5 -19.5t123.5 -50.5v-94q-59 34 -128.5 54.5t-135.5 23.5v-815q79 3 150.5 23.5t129.5 56.5v-97q-64 -32 -132 -49t-148 -20v-213h-74v215q-212 14 -340.5 147.5t-128.5 337.5zM297 772q0 -158 104.5 -267 t272.5 -124v811q-174 -16 -275.5 -128.5t-101.5 -291.5z" />
<glyph unicode="&#xa3;" d="M115 575v74h237l-30 62q-60 116 -89.5 219.5t-29.5 195.5q0 189 129.5 314t331.5 125q203 0 322 -109.5t130 -306.5l-98 -16q-9 163 -100 251.5t-250 88.5q-165 0 -266 -96.5t-101 -252.5q0 -79 32.5 -184.5t94.5 -228.5q13 -26 18.5 -38.5t10.5 -23.5h395v-74h-367 q12 -34 17.5 -64.5t5.5 -59.5q0 -66 -29.5 -133.5t-81.5 -120.5q61 0 112 -12.5t124 -49.5q66 -33 118 -48t97 -15q68 0 123.5 34t107.5 109l78 -47q-53 -92 -130 -140t-171 -48q-53 0 -113 16t-122 47q-83 41 -127.5 54.5t-83.5 13.5q-67 0 -120.5 -31.5t-105.5 -99.5 l-63 49q35 58 79.5 96t106.5 61q56 78 79.5 136t23.5 118q0 36 -6 69t-19 66h-270z" />
<glyph unicode="&#xa4;" d="M106 551l189 188q-54 62 -82.5 138.5t-28.5 158.5q0 83 28.5 159.5t82.5 137.5l-189 189l44 43l188 -189q61 54 137.5 82.5t159.5 28.5q82 0 158.5 -28.5t138.5 -82.5l188 189l43 -43l-188 -189q53 -61 81.5 -137.5t28.5 -159.5q0 -82 -28.5 -158.5t-81.5 -138.5 l188 -188l-43 -43l-188 188q-62 -53 -138.5 -81.5t-158.5 -28.5q-83 0 -159.5 28.5t-137.5 81.5l-188 -188zM258 1036q0 -156 110 -266.5t267 -110.5t267 110.5t110 266.5q0 157 -110 267t-267 110t-267 -110t-110 -267z" />
<glyph unicode="&#xa5;" d="M63 690v62h508l-133 215h-375v61h338l-317 516h106l451 -735l440 735h107l-314 -516h332v-61h-368l-129 -215h497v-62h-516v-690h-98v690h-529z" />
<glyph unicode="&#xa6;" horiz-adv-x="655" d="M281 -371v758h94v-758h-94zM281 653v758h94v-758h-94z" />
<glyph unicode="&#xa7;" d="M236 594q0 113 58 207t159 143q-74 45 -116 119.5t-42 161.5q0 141 99.5 240.5t240.5 99.5t241.5 -99.5t100.5 -240.5h-98q0 101 -72 174.5t-172 73.5q-99 0 -170.5 -73.5t-71.5 -174.5t70.5 -169.5t171.5 -68.5q167 0 283 -114t116 -279q0 -110 -56.5 -202.5 t-154.5 -143.5q90 -48 141.5 -133t51.5 -187q0 -158 -111.5 -268.5t-269.5 -110.5q-159 0 -270 110.5t-111 268.5h98q0 -117 83.5 -201.5t199.5 -84.5t199.5 84.5t83.5 201.5q0 116 -82.5 195.5t-200.5 79.5q-168 0 -283.5 113.5t-115.5 277.5zM334 594q0 -124 88 -211.5 t213 -87.5q124 0 212.5 87.5t88.5 211.5t-88.5 212.5t-212.5 88.5q-125 0 -213 -88.5t-88 -212.5z" />
<glyph unicode="&#xa8;" horiz-adv-x="862" d="M150 1206q0 34 23 57t56 23q34 0 57 -23t23 -57t-23 -57t-57 -23q-33 0 -56 23t-23 57zM555 1206q0 34 23 57t57 23t57 -23t23 -57t-23 -57t-57 -23t-57 23t-23 57z" />
<glyph unicode="&#xa9;" horiz-adv-x="1638" d="M27 772q0 329 231.5 561t560.5 232t561 -232t232 -561t-232 -560.5t-561 -231.5t-560.5 231.5t-231.5 560.5zM104 772q0 -296 209.5 -505.5t505.5 -209.5q297 0 506 209.5t209 505.5q0 297 -209 506t-506 209q-296 0 -505.5 -209t-209.5 -506zM358 786q0 211 141 348.5 t353 137.5q84 0 162.5 -25.5t138.5 -70.5v-99q-70 55 -144 84t-147 29q-190 0 -304 -110.5t-114 -293.5q0 -179 115 -293t291 -114q79 0 154 26t149 80v-96q-69 -43 -148.5 -67.5t-152.5 -24.5q-215 0 -354.5 137t-139.5 352z" />
<glyph unicode="&#xaa;" horiz-adv-x="688" d="M41 1270q0 123 86 209t209 86q66 0 121 -30t92 -85v94h82v-549h-82v95q-37 -55 -92 -85t-121 -30q-123 0 -209 86t-86 209zM123 1270q0 -90 62 -154.5t149 -64.5t151 65t64 154t-64 154t-151 65t-149 -64.5t-62 -154.5z" />
<glyph unicode="&#xab;" horiz-adv-x="813" d="M113 471l282 475l70 -43l-262 -432l262 -428l-70 -43zM358 471l283 475l70 -43l-262 -432l262 -428l-70 -43z" />
<glyph unicode="&#xac;" d="M102 766v86h1024v-596h-90v510h-934z" />
<glyph unicode="&#xad;" horiz-adv-x="389" d="M0 512v92h389v-92h-389z" />
<glyph unicode="&#xae;" horiz-adv-x="1638" d="M27 772q0 329 231.5 561t560.5 232t561 -232t232 -561t-232 -560.5t-561 -231.5t-560.5 231.5t-231.5 560.5zM104 772q0 -296 209.5 -505.5t505.5 -209.5q297 0 506 209.5t209 505.5q0 297 -209 506t-506 209q-296 0 -505.5 -209t-209.5 -506zM621 313v942h149 q152 0 232.5 -66.5t80.5 -189.5q0 -99 -65.5 -161t-187.5 -74l315 -451h-113l-305 449h-20v-449h-86zM707 844h61q119 0 174 37.5t55 119.5q0 87 -57 130t-172 43h-61v-330z" />
<glyph unicode="&#xaf;" horiz-adv-x="1024" d="M0 1483v82h1024v-82h-1024z" />
<glyph unicode="&#xb0;" horiz-adv-x="819" d="M127 1280q0 118 83 201.5t200 83.5q115 0 198.5 -84t83.5 -201q0 -116 -83.5 -198.5t-200.5 -82.5q-118 0 -199.5 82t-81.5 199zM190 1280q0 -92 64 -155.5t156 -63.5t156.5 64t64.5 155t-65.5 156t-155.5 65q-92 0 -156 -64t-64 -157z" />
<glyph unicode="&#xb1;" d="M102 0v86h1065v-86h-1065zM102 612v86h488v408h90v-408h487v-86h-487v-407h-90v407h-488z" />
<glyph unicode="&#xb2;" horiz-adv-x="762" d="M63 643q109 113 324 338q112 117 155.5 184.5t43.5 139.5q0 82 -56.5 131t-150.5 49q-97 0 -154 -58.5t-57 -152.5h-86q0 133 82 212t221 79q131 0 209 -69.5t78 -186.5q0 -89 -48 -169t-178 -210l-206 -207h440v-80h-617z" />
<glyph unicode="&#xb3;" horiz-adv-x="762" d="M90 887h86q0 -85 50.5 -135t140.5 -50q96 0 153.5 54.5t57.5 140.5q0 87 -57 141t-150 54h-45v71h49q87 0 136.5 40t49.5 110q0 75 -51.5 123.5t-132.5 48.5q-80 0 -130 -45.5t-50 -114.5h-86q0 99 76 169.5t190 70.5q121 0 195.5 -67t74.5 -175q0 -82 -35.5 -131 t-105.5 -66q72 -20 115 -82.5t43 -146.5q0 -124 -83 -199t-214 -75q-132 0 -204.5 69.5t-72.5 194.5z" />
<glyph unicode="&#xb4;" horiz-adv-x="641" d="M221 1087l223 318l66 -49l-236 -309z" />
<glyph unicode="&#xb5;" horiz-adv-x="967" d="M-61 -532l313 1478h92l-96 -454q-13 -64 -20 -118.5t-7 -99.5q0 -108 42 -158t132 -50q113 0 193 107t125 319l96 454h92l-119 -551q-19 -93 -28 -150t-9 -91q0 -48 14 -68t54 -20q14 0 29.5 3.5t36.5 12.5l22 -82q-12 -6 -42 -13t-44 -7q-84 0 -120 42.5t-36 141.5 q-52 -93 -121.5 -138.5t-160.5 -45.5q-84 0 -135 35.5t-72 109.5l-139 -657h-92z" />
<glyph unicode="&#xb6;" d="M166 1196q0 156 111.5 252t295.5 96h531v-92h-143v-1452h-99v1452h-186v-1452h-98v846q-194 9 -303 102.5t-109 247.5z" />
<glyph unicode="&#xb7;" horiz-adv-x="635" d="M229 784q0 37 26 62.5t62 25.5q37 0 63 -25.5t26 -62.5q0 -36 -26 -62t-63 -26q-36 0 -62 26t-26 62z" />
<glyph unicode="&#xb8;" horiz-adv-x="612" d="M199 -348l172 323l73 -38l-186 -318z" />
<glyph unicode="&#xb9;" horiz-adv-x="762" d="M193 1464l43 80h223v-901h-86v821h-180z" />
<glyph unicode="&#xba;" horiz-adv-x="672" d="M41 1270q0 123 86 209t209 86t209 -86t86 -209t-86 -209t-209 -86t-209 86t-86 209zM123 1270q0 -90 62 -154.5t149 -64.5t151 65t64 154t-64 154t-151 65t-149 -64.5t-62 -154.5z" />
<glyph unicode="&#xbb;" horiz-adv-x="813" d="M102 43l263 428l-263 432l70 43l283 -475l-283 -471zM348 43l262 428l-262 432l70 43l282 -475l-282 -471z" />
<glyph unicode="&#xbc;" horiz-adv-x="1905" d="M193 1464l43 80h223v-901h-86v821h-180zM434 -20l934 1585h102l-933 -1585h-103zM1110 221l565 717v-637h140v-80h-140v-221h-86v221h-479zM1270 301h319v401z" />
<glyph unicode="&#xbd;" horiz-adv-x="1905" d="M193 1464l43 80h223v-901h-86v821h-180zM434 -20l934 1585h102l-933 -1585h-103zM1206 0q109 113 324 338q112 117 155.5 184.5t43.5 139.5q0 82 -56.5 131t-150.5 49q-97 0 -154 -58.5t-57 -152.5h-86q0 133 82 212t221 79q131 0 209 -69.5t78 -186.5q0 -89 -48 -169 t-178 -210l-207 -207h441v-80h-617z" />
<glyph unicode="&#xbe;" horiz-adv-x="1905" d="M90 887h86q0 -85 50.5 -135t140.5 -50q96 0 153.5 54.5t57.5 140.5q0 87 -57 141t-150 54h-45v71h49q87 0 136.5 40t49.5 110q0 75 -51.5 123.5t-132.5 48.5q-80 0 -130 -45.5t-50 -114.5h-86q0 99 76 169.5t190 70.5q121 0 195.5 -67t74.5 -175q0 -82 -35.5 -131 t-105.5 -66q72 -20 115 -82.5t43 -146.5q0 -124 -83 -199t-214 -75q-132 0 -204.5 69.5t-72.5 194.5zM434 -20l934 1585h102l-933 -1585h-103zM1110 221l565 717v-637h140v-80h-140v-221h-86v221h-479zM1270 301h319v401z" />
<glyph unicode="&#xbf;" horiz-adv-x="1006" d="M141 309q0 131 74.5 223t249.5 181q140 71 190 123.5t50 144.5q0 78 -54.5 126t-146.5 48q-98 0 -151.5 -51t-53.5 -143h-98q0 134 81 210t222 76q138 0 218.5 -73.5t80.5 -194.5q0 -112 -68 -192t-225 -154q-146 -70 -208 -142t-62 -174q0 -110 70.5 -177.5t187.5 -67.5 q127 0 195.5 74t72.5 216h98q0 -184 -96 -283t-276 -99q-160 0 -255.5 89.5t-95.5 239.5zM430 1477q0 36 25.5 62t62.5 26t62.5 -26t25.5 -62q0 -37 -25.5 -62.5t-62.5 -25.5t-62.5 25.5t-25.5 62.5z" />
<glyph unicode="&#xc0;" horiz-adv-x="1313" d="M18 0l639 1581l639 -1581h-104l-213 537h-643l-213 -537h-105zM373 629h569l-285 721zM467 1954l66 49l223 -318l-53 -40z" />
<glyph unicode="&#xc1;" horiz-adv-x="1313" d="M18 0l639 1581l639 -1581h-104l-213 537h-643l-213 -537h-105zM373 629h569l-285 721zM557 1685l223 318l66 -49l-236 -309z" />
<glyph unicode="&#xc2;" horiz-adv-x="1313" d="M18 0l639 1581l639 -1581h-104l-213 537h-643l-213 -537h-105zM373 629h569l-285 721zM397 1681l260 322l260 -322l-45 -36l-215 235l-215 -235z" />
<glyph unicode="&#xc3;" horiz-adv-x="1313" d="M18 0l639 1581l639 -1581h-104l-213 537h-643l-213 -537h-105zM326 1759q36 70 79.5 101.5t106.5 31.5q33 0 69.5 -13t82.5 -42q61 -39 88.5 -50t50.5 -11q47 0 78 18.5t55 67.5l51 -29q-36 -70 -80.5 -102.5t-107.5 -32.5q-32 0 -67.5 13t-82.5 42q-58 37 -87.5 49.5 t-53.5 12.5q-46 0 -76 -18t-55 -69zM373 629h569l-285 721z" />
<glyph unicode="&#xc4;" horiz-adv-x="1313" d="M18 0l639 1581l639 -1581h-104l-213 537h-643l-213 -537h-105zM373 629h569l-285 721zM375 1804q0 34 23 57t56 23q34 0 57 -23t23 -57t-23 -57t-57 -23q-33 0 -56 23t-23 57zM780 1804q0 34 23 57t57 23t57 -23t23 -57t-23 -57t-57 -23t-57 23t-23 57z" />
<glyph unicode="&#xc5;" horiz-adv-x="1313" d="M18 0l639 1581l639 -1581h-104l-213 537h-643l-213 -537h-105zM373 629h569l-285 721zM408 1872q0 103 73.5 176.5t176.5 73.5t176.5 -73.5t73.5 -176.5t-73.5 -176.5t-176.5 -73.5t-176.5 73.5t-73.5 176.5zM461 1872q0 -82 57.5 -139.5t139.5 -57.5q81 0 138.5 57.5 t57.5 139.5q0 81 -57.5 138.5t-138.5 57.5q-82 0 -139.5 -57.5t-57.5 -138.5z" />
<glyph unicode="&#xc6;" horiz-adv-x="1929" d="M18 0l652 1544h659l37 -92h-625l205 -543h627l37 -92h-627l277 -725h628l35 -92h-731l-203 537h-643l-223 -537h-105zM383 629h569l-270 721z" />
<glyph unicode="&#xc7;" horiz-adv-x="1513" d="M111 774q0 343 227 567t571 224q141 0 260.5 -38t221.5 -114v-113q-113 89 -226 131t-241 42q-315 0 -515 -195t-200 -504t196.5 -505.5t497.5 -196.5q129 0 254 41t234 118v-114q-105 -65 -233 -101t-249 -36q-350 0 -574 221.5t-224 572.5zM801 -348l172 323l73 -38 l-186 -318z" />
<glyph unicode="&#xc8;" horiz-adv-x="1038" d="M174 0v1544h727v-92h-629v-543h629v-92h-629v-725h629v-92h-727zM354 1954l66 49l223 -318l-53 -40z" />
<glyph unicode="&#xc9;" horiz-adv-x="1038" d="M174 0v1544h727v-92h-629v-543h629v-92h-629v-725h629v-92h-727zM444 1685l223 318l66 -49l-236 -309z" />
<glyph unicode="&#xca;" horiz-adv-x="1038" d="M174 0v1544h727v-92h-629v-543h629v-92h-629v-725h629v-92h-727zM282 1681l260 322l260 -322l-45 -36l-215 235l-215 -235z" />
<glyph unicode="&#xcb;" horiz-adv-x="1038" d="M174 0v1544h727v-92h-629v-543h629v-92h-629v-725h629v-92h-727zM263 1804q0 34 23 57t56 23q34 0 57 -23t23 -57t-23 -57t-57 -23q-33 0 -56 23t-23 57zM668 1804q0 34 23 57t57 23t57 -23t23 -57t-23 -57t-57 -23t-57 23t-23 57z" />
<glyph unicode="&#xcc;" horiz-adv-x="430" d="M27 1954l66 49l223 -318l-53 -40zM166 0v1544h98v-1544h-98z" />
<glyph unicode="&#xcd;" horiz-adv-x="430" d="M117 1685l223 318l66 -49l-236 -309zM166 0v1544h98v-1544h-98z" />
<glyph unicode="&#xce;" horiz-adv-x="430" d="M-45 1681l260 322l260 -322l-45 -36l-215 235l-215 -235zM166 0v1544h98v-1544h-98z" />
<glyph unicode="&#xcf;" horiz-adv-x="430" d="M-65 1804q0 34 23 57t56 23q34 0 57 -23t23 -57t-23 -57t-57 -23q-33 0 -56 23t-23 57zM166 0v1544h98v-1544h-98zM340 1804q0 34 23 57t57 23t57 -23t23 -57t-23 -57t-57 -23t-57 23t-23 57z" />
<glyph unicode="&#xd0;" horiz-adv-x="1335" d="M0 768v86h174v690h217q416 0 634 -201t218 -573q0 -389 -216.5 -579.5t-664.5 -190.5h-188v768h-174zM272 92h74q426 0 612.5 163t186.5 517q0 335 -195 507.5t-575 172.5h-103v-598h486v-86h-486v-676z" />
<glyph unicode="&#xd1;" horiz-adv-x="1726" d="M184 0v1581l1260 -1362v1325h98v-1581l-1259 1364v-1327h-99zM533 1759q36 70 79.5 101.5t106.5 31.5q33 0 69.5 -13t82.5 -42q61 -39 88.5 -50t50.5 -11q47 0 78 18.5t55 67.5l51 -29q-36 -70 -80.5 -102.5t-107.5 -32.5q-32 0 -67.5 13t-82.5 42q-58 37 -87.5 49.5 t-53.5 12.5q-46 0 -76 -18t-55 -69z" />
<glyph unicode="&#xd2;" horiz-adv-x="1749" d="M78 772q0 338 228 565.5t566 227.5q339 0 569 -227.5t230 -565.5q0 -331 -233 -561.5t-566 -230.5q-330 0 -562 230.5t-232 561.5zM176 772q0 -295 201.5 -497.5t494.5 -202.5q294 0 497.5 203t203.5 497q0 295 -203.5 498t-497.5 203q-292 0 -494 -203t-202 -498z M686 1954l66 49l223 -318l-53 -40z" />
<glyph unicode="&#xd3;" horiz-adv-x="1749" d="M78 772q0 338 228 565.5t566 227.5q339 0 569 -227.5t230 -565.5q0 -331 -233 -561.5t-566 -230.5q-330 0 -562 230.5t-232 561.5zM176 772q0 -295 201.5 -497.5t494.5 -202.5q294 0 497.5 203t203.5 497q0 295 -203.5 498t-497.5 203q-292 0 -494 -203t-202 -498z M776 1685l223 318l66 -49l-236 -309z" />
<glyph unicode="&#xd4;" horiz-adv-x="1749" d="M78 772q0 338 228 565.5t566 227.5q339 0 569 -227.5t230 -565.5q0 -331 -233 -561.5t-566 -230.5q-330 0 -562 230.5t-232 561.5zM176 772q0 -295 201.5 -497.5t494.5 -202.5q294 0 497.5 203t203.5 497q0 295 -203.5 498t-497.5 203q-292 0 -494 -203t-202 -498z M614 1681l260 322l260 -322l-45 -36l-215 235l-215 -235z" />
<glyph unicode="&#xd5;" horiz-adv-x="1749" d="M78 772q0 338 228 565.5t566 227.5q339 0 569 -227.5t230 -565.5q0 -331 -233 -561.5t-566 -230.5q-330 0 -562 230.5t-232 561.5zM176 772q0 -295 201.5 -497.5t494.5 -202.5q294 0 497.5 203t203.5 497q0 295 -203.5 498t-497.5 203q-292 0 -494 -203t-202 -498z M545 1759q36 70 79.5 101.5t106.5 31.5q33 0 69.5 -13t82.5 -42q61 -39 88.5 -50t50.5 -11q47 0 78 18.5t55 67.5l51 -29q-36 -70 -80.5 -102.5t-107.5 -32.5q-32 0 -67.5 13t-82.5 42q-58 37 -87.5 49.5t-53.5 12.5q-46 0 -76 -18t-55 -69z" />
<glyph unicode="&#xd6;" horiz-adv-x="1749" d="M78 772q0 338 228 565.5t566 227.5q339 0 569 -227.5t230 -565.5q0 -331 -233 -561.5t-566 -230.5q-330 0 -562 230.5t-232 561.5zM176 772q0 -295 201.5 -497.5t494.5 -202.5q294 0 497.5 203t203.5 497q0 295 -203.5 498t-497.5 203q-292 0 -494 -203t-202 -498z M594 1804q0 34 23 57t56 23q34 0 57 -23t23 -57t-23 -57t-57 -23q-33 0 -56 23t-23 57zM999 1804q0 34 23 57t57 23t57 -23t23 -57t-23 -57t-57 -23t-57 23t-23 57z" />
<glyph unicode="&#xd7;" d="M152 973l63 63l422 -422l405 408l62 -61l-408 -406l422 -422l-63 -63l-422 422l-406 -408l-61 61l407 406z" />
<glyph unicode="&#xd8;" horiz-adv-x="1749" d="M78 772q0 338 228 565.5t566 227.5q151 0 288 -50.5t247 -146.5l190 197l45 -43l-190 -197q106 -111 162.5 -253t56.5 -300q0 -331 -233 -561.5t-566 -230.5q-147 0 -283 51t-245 147l-192 -198l-46 43l193 198q-106 110 -163.5 252.5t-57.5 298.5zM176 772 q0 -136 49 -261t140 -222l974 1009q-95 85 -215.5 130t-251.5 45q-292 0 -494 -203t-202 -498zM408 246q95 -85 214.5 -129.5t249.5 -44.5q294 0 497.5 203t203.5 497q0 136 -49 261t-140 222z" />
<glyph unicode="&#xd9;" horiz-adv-x="1352" d="M164 573v971h98v-997q0 -250 99 -362.5t315 -112.5q215 0 314.5 112.5t99.5 362.5v997h98v-971q0 -316 -121 -454.5t-391 -138.5q-271 0 -391.5 138.5t-120.5 454.5zM487 1954l66 49l223 -318l-53 -40z" />
<glyph unicode="&#xda;" horiz-adv-x="1352" d="M164 573v971h98v-997q0 -250 99 -362.5t315 -112.5q215 0 314.5 112.5t99.5 362.5v997h98v-971q0 -316 -121 -454.5t-391 -138.5q-271 0 -391.5 138.5t-120.5 454.5zM577 1685l223 318l66 -49l-236 -309z" />
<glyph unicode="&#xdb;" horiz-adv-x="1352" d="M164 573v971h98v-997q0 -250 99 -362.5t315 -112.5q215 0 314.5 112.5t99.5 362.5v997h98v-971q0 -316 -121 -454.5t-391 -138.5q-271 0 -391.5 138.5t-120.5 454.5zM416 1681l260 322l260 -322l-45 -36l-215 235l-215 -235z" />
<glyph unicode="&#xdc;" horiz-adv-x="1352" d="M164 573v971h98v-997q0 -250 99 -362.5t315 -112.5q215 0 314.5 112.5t99.5 362.5v997h98v-971q0 -316 -121 -454.5t-391 -138.5q-271 0 -391.5 138.5t-120.5 454.5zM396 1804q0 34 23 57t56 23q34 0 57 -23t23 -57t-23 -57t-57 -23q-33 0 -56 23t-23 57zM801 1804 q0 34 23 57t57 23t57 -23t23 -57t-23 -57t-57 -23t-57 23t-23 57z" />
<glyph unicode="&#xdd;" horiz-adv-x="1145" d="M20 1544h107l451 -735l440 735h106l-497 -823v-721h-99v721zM473 1685l223 318l66 -49l-236 -309z" />
<glyph unicode="&#xde;" horiz-adv-x="967" d="M174 0v1544h98v-327h80q279 0 406 -101t127 -311q0 -207 -129.5 -305.5t-403.5 -98.5h-80v-401h-98zM272 494h80q235 0 334.5 73t99.5 238q0 167 -101 243t-333 76h-80v-630z" />
<glyph unicode="&#xdf;" horiz-adv-x="1094" d="M31 860v86h139v387q0 192 85.5 284.5t264.5 92.5q157 0 253.5 -99.5t96.5 -260.5q0 -111 -56.5 -195.5t-154.5 -118.5q153 -44 249 -183.5t96 -324.5q0 -250 -130.5 -399t-353.5 -149h-31v86h31q174 0 282.5 126.5t108.5 333.5q0 199 -115.5 331t-295.5 132v86 q127 0 202.5 75t75.5 200q0 124 -71.5 199t-186.5 75q-129 0 -193.5 -70.5t-64.5 -214.5v-1339h-92v860h-139z" />
<glyph unicode="&#xe0;" horiz-adv-x="1147" d="M92 463q0 225 122.5 364.5t315.5 139.5q140 0 225.5 -46.5t145.5 -154.5v180h92v-946h-92v180q-64 -103 -152.5 -151.5t-211.5 -48.5q-198 0 -321.5 133t-123.5 350zM184 465q0 -183 99.5 -291t265.5 -108q161 0 256.5 111t95.5 298t-99.5 296.5t-264.5 109.5 q-157 0 -255 -114.5t-98 -301.5zM354 1356l66 49l223 -318l-53 -40z" />
<glyph unicode="&#xe1;" horiz-adv-x="1147" d="M92 463q0 225 122.5 364.5t315.5 139.5q140 0 225.5 -46.5t145.5 -154.5v180h92v-946h-92v180q-64 -103 -152.5 -151.5t-211.5 -48.5q-198 0 -321.5 133t-123.5 350zM184 465q0 -183 99.5 -291t265.5 -108q161 0 256.5 111t95.5 298t-99.5 296.5t-264.5 109.5 q-157 0 -255 -114.5t-98 -301.5zM444 1087l223 318l66 -49l-236 -309z" />
<glyph unicode="&#xe2;" horiz-adv-x="1147" d="M92 463q0 225 122.5 364.5t315.5 139.5q140 0 225.5 -46.5t145.5 -154.5v180h92v-946h-92v180q-64 -103 -152.5 -151.5t-211.5 -48.5q-198 0 -321.5 133t-123.5 350zM184 465q0 -183 99.5 -291t265.5 -108q161 0 256.5 111t95.5 298t-99.5 296.5t-264.5 109.5 q-157 0 -255 -114.5t-98 -301.5zM282 1083l260 322l260 -322l-45 -36l-215 235l-215 -235z" />
<glyph unicode="&#xe3;" horiz-adv-x="1147" d="M92 463q0 225 122.5 364.5t315.5 139.5q140 0 225.5 -46.5t145.5 -154.5v180h92v-946h-92v180q-64 -103 -152.5 -151.5t-211.5 -48.5q-198 0 -321.5 133t-123.5 350zM184 465q0 -183 99.5 -291t265.5 -108q161 0 256.5 111t95.5 298t-99.5 296.5t-264.5 109.5 q-157 0 -255 -114.5t-98 -301.5zM213 1161q36 70 79.5 101.5t106.5 31.5q33 0 69.5 -13t82.5 -42q61 -39 88.5 -50t50.5 -11q47 0 78 18.5t55 67.5l51 -29q-36 -70 -80.5 -102.5t-107.5 -32.5q-32 0 -67.5 13t-82.5 42q-58 37 -87.5 49.5t-53.5 12.5q-46 0 -76 -18t-55 -69z " />
<glyph unicode="&#xe4;" horiz-adv-x="1147" d="M92 463q0 225 122.5 364.5t315.5 139.5q140 0 225.5 -46.5t145.5 -154.5v180h92v-946h-92v180q-64 -103 -152.5 -151.5t-211.5 -48.5q-198 0 -321.5 133t-123.5 350zM184 465q0 -183 99.5 -291t265.5 -108q161 0 256.5 111t95.5 298t-99.5 296.5t-264.5 109.5 q-157 0 -255 -114.5t-98 -301.5zM263 1206q0 34 23 57t56 23q34 0 57 -23t23 -57t-23 -57t-57 -23q-33 0 -56 23t-23 57zM668 1206q0 34 23 57t57 23t57 -23t23 -57t-23 -57t-57 -23t-57 23t-23 57z" />
<glyph unicode="&#xe5;" horiz-adv-x="1147" d="M92 463q0 225 122.5 364.5t315.5 139.5q140 0 225.5 -46.5t145.5 -154.5v180h92v-946h-92v180q-64 -103 -152.5 -151.5t-211.5 -48.5q-198 0 -321.5 133t-123.5 350zM184 465q0 -183 99.5 -291t265.5 -108q161 0 256.5 111t95.5 298t-99.5 296.5t-264.5 109.5 q-157 0 -255 -114.5t-98 -301.5zM293 1274q0 103 73.5 176.5t176.5 73.5t176.5 -73.5t73.5 -176.5t-73.5 -176.5t-176.5 -73.5t-176.5 73.5t-73.5 176.5zM346 1274q0 -82 57.5 -139.5t139.5 -57.5q81 0 138.5 57.5t57.5 139.5q0 81 -57.5 138.5t-138.5 57.5 q-82 0 -139.5 -57.5t-57.5 -138.5z" />
<glyph unicode="&#xe6;" horiz-adv-x="1739" d="M74 283q0 130 108.5 216.5t278.5 86.5q97 0 189 -34.5t126 -82.5v92q0 156 -82.5 238t-240.5 82q-79 0 -162.5 -24t-147.5 -64v98q73 41 144 58.5t166 17.5q148 0 248 -62t137 -176q53 111 154 174.5t225 63.5q198 0 319 -125t121 -336v-27h-788q2 -198 93 -305.5 t255 -107.5q115 0 198 51t137 155l80 -41q-70 -129 -171 -190t-244 -61q-134 0 -232 57t-151 166q-49 -111 -143 -167t-230 -56q-182 0 -284.5 81t-102.5 222zM166 283q0 -103 80.5 -160t224.5 -57q133 0 221.5 60t108.5 165q-6 20 -11 43.5t-8 46.5q-37 50 -127.5 84.5 t-183.5 34.5q-139 0 -222 -60t-83 -157zM874 565h684q-9 143 -102 229.5t-239 86.5q-136 0 -233 -87.5t-110 -228.5z" />
<glyph unicode="&#xe7;" horiz-adv-x="977" d="M92 467q0 223 141.5 361.5t368.5 138.5q76 0 144 -17.5t133 -52.5v-94q-65 38 -135.5 58t-143.5 20q-192 0 -304 -113.5t-112 -308.5q0 -172 116.5 -282.5t299.5 -110.5q85 0 158 19.5t137 59.5v-96q-68 -35 -148 -52t-172 -17q-212 0 -347.5 136.5t-135.5 350.5z M471 -348l172 323l73 -38l-186 -318z" />
<glyph unicode="&#xe8;" horiz-adv-x="1044" d="M82 479q0 214 125 351t315 137q199 0 320 -125t121 -336v-27h-789q3 -199 94 -306t254 -107q116 0 199 51t137 155l80 -41q-70 -129 -171 -190t-245 -61q-206 0 -323 134t-117 365zM180 565l684 1q-9 141 -102.5 228t-239.5 87q-136 0 -232.5 -87.5t-109.5 -228.5z M334 1356l66 49l223 -318l-53 -40z" />
<glyph unicode="&#xe9;" horiz-adv-x="1044" d="M82 479q0 214 125 351t315 137q199 0 320 -125t121 -336v-27h-789q3 -199 94 -306t254 -107q116 0 199 51t137 155l80 -41q-70 -129 -171 -190t-245 -61q-206 0 -323 134t-117 365zM180 565l684 1q-9 141 -102.5 228t-239.5 87q-136 0 -232.5 -87.5t-109.5 -228.5z M424 1087l223 318l66 -49l-236 -309z" />
<glyph unicode="&#xea;" horiz-adv-x="1044" d="M82 479q0 214 125 351t315 137q199 0 320 -125t121 -336v-27h-789q3 -199 94 -306t254 -107q116 0 199 51t137 155l80 -41q-70 -129 -171 -190t-245 -61q-206 0 -323 134t-117 365zM180 565l684 1q-9 141 -102.5 228t-239.5 87q-136 0 -232.5 -87.5t-109.5 -228.5z M262 1083l260 322l260 -322l-45 -36l-215 235l-215 -235z" />
<glyph unicode="&#xeb;" horiz-adv-x="1044" d="M82 479q0 214 125 351t315 137q199 0 320 -125t121 -336v-27h-789q3 -199 94 -306t254 -107q116 0 199 51t137 155l80 -41q-70 -129 -171 -190t-245 -61q-206 0 -323 134t-117 365zM180 565l684 1q-9 141 -102.5 228t-239.5 87q-136 0 -232.5 -87.5t-109.5 -228.5z M242 1206q0 34 23 57t56 23q34 0 57 -23t23 -57t-23 -57t-57 -23q-33 0 -56 23t-23 57zM647 1206q0 34 23 57t57 23t57 -23t23 -57t-23 -57t-57 -23t-57 23t-23 57z" />
<glyph unicode="&#xec;" horiz-adv-x="479" d="M51 1356l66 49l223 -318l-53 -40zM195 0v946h92v-946h-92z" />
<glyph unicode="&#xed;" horiz-adv-x="479" d="M141 1087l223 318l66 -49l-236 -309zM195 0v946h92v-946h-92z" />
<glyph unicode="&#xee;" horiz-adv-x="479" d="M-21 1083l260 322l260 -322l-45 -36l-215 235l-215 -235zM195 0v946h92v-946h-92z" />
<glyph unicode="&#xef;" horiz-adv-x="479" d="M-40 1206q0 34 23 57t56 23q34 0 57 -23t23 -57t-23 -57t-57 -23q-33 0 -56 23t-23 57zM195 0v946h92v-946h-92zM365 1206q0 34 23 57t57 23t57 -23t23 -57t-23 -57t-57 -23t-57 23t-23 57z" />
<glyph unicode="&#xf0;" horiz-adv-x="1120" d="M70 477q0 207 138.5 348.5t342.5 141.5q117 0 215.5 -45t163.5 -127q-41 170 -140.5 328t-248.5 292l-279 -180l-45 72l258 166q-56 45 -118.5 86.5t-131.5 78.5l47 72q76 -41 146.5 -88t134.5 -98l287 186l45 -72l-267 -172q213 -192 323 -430.5t110 -505.5 q0 -265 -130.5 -407.5t-369.5 -142.5q-201 0 -341 144t-140 353zM162 475q0 -173 114 -291t279 -118q189 0 296 113t107 317q0 167 -115.5 276t-287.5 109q-167 0 -280 -116t-113 -290z" />
<glyph unicode="&#xf1;" horiz-adv-x="1004" d="M154 0v946h92v-158q45 94 117 136.5t184 42.5q140 0 221.5 -91t81.5 -251v-625h-92v588q0 154 -54.5 223.5t-177.5 69.5q-145 0 -212.5 -102t-67.5 -324v-455h-92zM172 1161q36 70 79.5 101.5t106.5 31.5q33 0 69.5 -13t82.5 -42q61 -39 88.5 -50t50.5 -11q47 0 78 18.5 t55 67.5l51 -29q-36 -70 -80.5 -102.5t-107.5 -32.5q-32 0 -67.5 13t-82.5 42q-58 37 -87.5 49.5t-53.5 12.5q-46 0 -76 -18t-55 -69z" />
<glyph unicode="&#xf2;" horiz-adv-x="1120" d="M70 477q0 206 141.5 348t345.5 142q209 0 351.5 -141.5t142.5 -348.5t-144 -352t-350 -145q-202 0 -344.5 145t-142.5 352zM162 475q0 -172 116.5 -290.5t282.5 -118.5t281.5 118.5t115.5 290.5t-114.5 289t-282.5 117t-283.5 -116.5t-115.5 -289.5zM371 1356l66 49 l223 -318l-53 -40z" />
<glyph unicode="&#xf3;" horiz-adv-x="1120" d="M70 477q0 206 141.5 348t345.5 142q209 0 351.5 -141.5t142.5 -348.5t-144 -352t-350 -145q-202 0 -344.5 145t-142.5 352zM162 475q0 -172 116.5 -290.5t282.5 -118.5t281.5 118.5t115.5 290.5t-114.5 289t-282.5 117t-283.5 -116.5t-115.5 -289.5zM461 1087l223 318 l66 -49l-236 -309z" />
<glyph unicode="&#xf4;" horiz-adv-x="1120" d="M70 477q0 206 141.5 348t345.5 142q209 0 351.5 -141.5t142.5 -348.5t-144 -352t-350 -145q-202 0 -344.5 145t-142.5 352zM162 475q0 -172 116.5 -290.5t282.5 -118.5t281.5 118.5t115.5 290.5t-114.5 289t-282.5 117t-283.5 -116.5t-115.5 -289.5zM301 1083l260 322 l260 -322l-45 -36l-215 235l-215 -235z" />
<glyph unicode="&#xf5;" horiz-adv-x="1120" d="M70 477q0 206 141.5 348t345.5 142q209 0 351.5 -141.5t142.5 -348.5t-144 -352t-350 -145q-202 0 -344.5 145t-142.5 352zM162 475q0 -172 116.5 -290.5t282.5 -118.5t281.5 118.5t115.5 290.5t-114.5 289t-282.5 117t-283.5 -116.5t-115.5 -289.5zM230 1161 q36 70 79.5 101.5t106.5 31.5q33 0 69.5 -13t82.5 -42q61 -39 88.5 -50t50.5 -11q47 0 78 18.5t55 67.5l51 -29q-36 -70 -80.5 -102.5t-107.5 -32.5q-32 0 -67.5 13t-82.5 42q-58 37 -87.5 49.5t-53.5 12.5q-46 0 -76 -18t-55 -69z" />
<glyph unicode="&#xf6;" horiz-adv-x="1120" d="M70 477q0 206 141.5 348t345.5 142q209 0 351.5 -141.5t142.5 -348.5t-144 -352t-350 -145q-202 0 -344.5 145t-142.5 352zM162 475q0 -172 116.5 -290.5t282.5 -118.5t281.5 118.5t115.5 290.5t-114.5 289t-282.5 117t-283.5 -116.5t-115.5 -289.5zM279 1206q0 34 23 57 t56 23q34 0 57 -23t23 -57t-23 -57t-57 -23q-33 0 -56 23t-23 57zM684 1206q0 34 23 57t57 23t57 -23t23 -57t-23 -57t-57 -23t-57 23t-23 57z" />
<glyph unicode="&#xf7;" d="M102 510v86h1065v-86h-1065zM547 227q0 37 25.5 62.5t62.5 25.5t62.5 -25.5t25.5 -62.5t-25.5 -62.5t-62.5 -25.5t-62.5 25.5t-25.5 62.5zM547 879q0 36 25.5 62t62.5 26t62.5 -26t25.5 -62q0 -37 -25.5 -62.5t-62.5 -25.5t-62.5 25.5t-25.5 62.5z" />
<glyph unicode="&#xf8;" horiz-adv-x="1120" d="M70 25l120 122q-58 69 -89 153.5t-31 176.5q0 206 141.5 348t345.5 142q94 0 178.5 -31t151.5 -90l121 121l43 -45l-121 -121q59 -67 90 -150t31 -174q0 -207 -144 -352t-350 -145q-90 0 -173 31.5t-148 90.5l-123 -122zM162 475q0 -74 23.5 -142t68.5 -122l569 571 q-54 48 -121.5 73.5t-140.5 25.5q-168 0 -283.5 -116.5t-115.5 -289.5zM297 166q53 -48 121.5 -74t142.5 -26q166 0 281.5 118.5t115.5 290.5q0 75 -23 142t-67 120z" />
<glyph unicode="&#xf9;" horiz-adv-x="967" d="M154 391v555h92v-528q0 -189 52.5 -270.5t184.5 -81.5q135 0 186.5 80t51.5 272v528h92v-555q0 -218 -78.5 -314.5t-251.5 -96.5q-171 0 -250 99t-79 312zM295 1356l66 49l223 -318l-53 -40z" />
<glyph unicode="&#xfa;" horiz-adv-x="967" d="M154 391v555h92v-528q0 -189 52.5 -270.5t184.5 -81.5q135 0 186.5 80t51.5 272v528h92v-555q0 -218 -78.5 -314.5t-251.5 -96.5q-171 0 -250 99t-79 312zM385 1087l223 318l66 -49l-236 -309z" />
<glyph unicode="&#xfb;" horiz-adv-x="967" d="M154 391v555h92v-528q0 -189 52.5 -270.5t184.5 -81.5q135 0 186.5 80t51.5 272v528h92v-555q0 -218 -78.5 -314.5t-251.5 -96.5q-171 0 -250 99t-79 312zM223 1083l260 322l260 -322l-45 -36l-215 235l-215 -235z" />
<glyph unicode="&#xfc;" horiz-adv-x="967" d="M154 391v555h92v-528q0 -189 52.5 -270.5t184.5 -81.5q135 0 186.5 80t51.5 272v528h92v-555q0 -218 -78.5 -314.5t-251.5 -96.5q-171 0 -250 99t-79 312zM203 1206q0 34 23 57t56 23q34 0 57 -23t23 -57t-23 -57t-57 -23q-33 0 -56 23t-23 57zM608 1206q0 34 23 57 t57 23t57 -23t23 -57t-23 -57t-57 -23t-57 23t-23 57z" />
<glyph unicode="&#xfd;" horiz-adv-x="942" d="M16 946h103l373 -774l331 774h103l-654 -1478h-102l270 600zM381 1087l223 318l66 -49l-236 -309z" />
<glyph unicode="&#xfe;" horiz-adv-x="1147" d="M154 -532v2222h92v-914q58 95 149.5 143t214.5 48q198 0 321.5 -133.5t123.5 -350.5q0 -225 -122.5 -364t-316.5 -139q-128 0 -218.5 51.5t-151.5 158.5v-722h-92zM246 492q0 -192 101.5 -309t262.5 -117q157 0 255 114t98 301q0 183 -99.5 291.5t-265.5 108.5 q-165 0 -258.5 -103t-93.5 -286z" />
<glyph unicode="&#xff;" horiz-adv-x="942" d="M16 946h103l373 -774l331 774h103l-654 -1478h-102l270 600zM199 1206q0 34 23 57t56 23q34 0 57 -23t23 -57t-23 -57t-57 -23q-33 0 -56 23t-23 57zM604 1206q0 34 23 57t57 23t57 -23t23 -57t-23 -57t-57 -23t-57 23t-23 57z" />
<glyph unicode="&#x152;" horiz-adv-x="2443" d="M78 772q0 338 230 565.5t569 227.5q233 0 420 -115.5t282 -316.5v411h727v-92h-629v-543h629v-92h-629v-725h629v-92h-727v420q-97 -203 -285.5 -321.5t-416.5 -118.5q-332 0 -565.5 231t-233.5 561zM176 772q0 -294 203.5 -497t497.5 -203t498 203t204 497t-204 497.5 t-498 203.5t-497.5 -203t-203.5 -498z" />
<glyph unicode="&#x153;" horiz-adv-x="1935" d="M82 477q0 206 141.5 348t345.5 142q149 0 268.5 -80t176.5 -215q48 136 155 215.5t244 79.5q199 0 319.5 -125t120.5 -336v-27h-790q3 -198 94.5 -305.5t255.5 -107.5q116 0 198.5 51t137.5 155l80 -41q-70 -129 -171 -190t-245 -61q-150 0 -254 77t-149 219 q-58 -135 -177 -215.5t-264 -80.5q-202 0 -344.5 145t-142.5 352zM174 475q0 -172 116.5 -290.5t282.5 -118.5t282 118.5t116 290.5t-115 289t-283 117t-283.5 -116.5t-115.5 -289.5zM1069 565l686 1q-9 141 -102.5 228t-239.5 87q-136 0 -233.5 -90.5t-110.5 -225.5z" />
<glyph unicode="&#x178;" horiz-adv-x="1145" d="M20 1544h107l451 -735l440 735h106l-497 -823v-721h-99v721zM291 1804q0 34 23 57t56 23q34 0 57 -23t23 -57t-23 -57t-57 -23q-33 0 -56 23t-23 57zM696 1804q0 34 23 57t57 23t57 -23t23 -57t-23 -57t-57 -23t-57 23t-23 57z" />
<glyph unicode="&#x2c6;" horiz-adv-x="872" d="M176 1083l260 322l260 -322l-45 -36l-215 235l-215 -235z" />
<glyph unicode="&#x2dc;" horiz-adv-x="899" d="M119 1161q36 70 79.5 101.5t106.5 31.5q33 0 69.5 -13t82.5 -42q61 -39 88.5 -50t50.5 -11q47 0 78 18.5t55 67.5l51 -29q-36 -70 -80.5 -102.5t-107.5 -32.5q-32 0 -67.5 13t-82.5 42q-58 37 -87.5 49.5t-53.5 12.5q-46 0 -76 -18t-55 -69z" />
<glyph unicode="&#x2000;" horiz-adv-x="1061" />
<glyph unicode="&#x2001;" horiz-adv-x="2122" />
<glyph unicode="&#x2002;" horiz-adv-x="1061" />
<glyph unicode="&#x2003;" horiz-adv-x="2122" />
<glyph unicode="&#x2004;" horiz-adv-x="707" />
<glyph unicode="&#x2005;" horiz-adv-x="530" />
<glyph unicode="&#x2006;" horiz-adv-x="353" />
<glyph unicode="&#x2007;" horiz-adv-x="353" />
<glyph unicode="&#x2008;" horiz-adv-x="265" />
<glyph unicode="&#x2009;" horiz-adv-x="424" />
<glyph unicode="&#x200a;" horiz-adv-x="117" />
<glyph unicode="&#x2010;" horiz-adv-x="389" d="M0 512v92h389v-92h-389z" />
<glyph unicode="&#x2011;" horiz-adv-x="389" d="M0 512v92h389v-92h-389z" />
<glyph unicode="&#x2012;" horiz-adv-x="389" d="M0 512v92h389v-92h-389z" />
<glyph unicode="&#x2013;" horiz-adv-x="1024" d="M0 516v86h1024v-86h-1024z" />
<glyph unicode="&#x2014;" horiz-adv-x="2048" d="M205 516v86h1638v-86h-1638z" />
<glyph unicode="&#x2018;" horiz-adv-x="530" d="M125 1098l225 467l56 -25l-191 -483z" />
<glyph unicode="&#x2019;" horiz-adv-x="530" d="M125 1081l190 484l91 -41l-226 -467z" />
<glyph unicode="&#x201a;" horiz-adv-x="530" d="M84 -250l190 483l91 -40l-226 -467z" />
<glyph unicode="&#x201c;" horiz-adv-x="799" d="M125 1098l225 467l56 -25l-191 -483zM393 1098l225 467l56 -25l-191 -483z" />
<glyph unicode="&#x201d;" horiz-adv-x="799" d="M125 1081l190 484l91 -41l-226 -467zM393 1081l191 484l90 -41l-225 -467z" />
<glyph unicode="&#x201e;" horiz-adv-x="799" d="M84 -250l190 483l91 -40l-226 -467zM352 -250l191 483l90 -40l-225 -467z" />
<glyph unicode="&#x2022;" d="M330 807q0 127 88.5 216t216.5 89q126 0 215.5 -89t89.5 -216t-89 -216t-216 -89t-216 89t-89 216z" />
<glyph unicode="&#x2026;" horiz-adv-x="2048" d="M254 68q0 36 25.5 62t62.5 26t62.5 -26t25.5 -62q0 -37 -25.5 -62.5t-62.5 -25.5t-62.5 25.5t-25.5 62.5zM936 68q0 36 25.5 62t62.5 26t62.5 -26t25.5 -62q0 -37 -25.5 -62.5t-62.5 -25.5t-62.5 25.5t-25.5 62.5zM1618 68q0 36 25.5 62t62.5 26t62.5 -26t25.5 -62 q0 -37 -25.5 -62.5t-62.5 -25.5t-62.5 25.5t-25.5 62.5z" />
<glyph unicode="&#x202f;" horiz-adv-x="424" />
<glyph unicode="&#x2039;" horiz-adv-x="567" d="M113 471l282 475l70 -43l-262 -432l262 -428l-70 -43z" />
<glyph unicode="&#x203a;" horiz-adv-x="567" d="M102 43l263 428l-263 432l70 43l283 -475l-283 -471z" />
<glyph unicode="&#x205f;" horiz-adv-x="530" />
<glyph unicode="&#x20ac;" d="M49 608l21 62h182q-2 37 -3 59.5t-1 42.5q0 21 0.5 44t3.5 68l-203 1l21 61h188q35 285 181.5 452t357.5 167q121 0 215.5 -36.5t175.5 -115.5v-113q-94 92 -186.5 132.5t-204.5 40.5q-173 0 -290.5 -141t-150.5 -386h723l-20 -61l-709 -1q-2 -42 -3 -67.5t-1 -46.5 q0 -18 1 -39t3 -61h637l-20 -62h-611q31 -248 149.5 -392t291.5 -144q113 0 196 32.5t195 126.5v-114q-86 -71 -180 -104t-211 -33q-215 0 -361.5 168t-179.5 460h-207z" />
<glyph unicode="&#x2122;" horiz-adv-x="1925" d="M37 1462v82h659v-82h-282v-768h-86v768h-291zM838 694v850h125l311 -719l311 719h125v-850h-86v740l-319 -740h-62l-319 736v-736h-86z" />
<glyph unicode="&#x25fc;" horiz-adv-x="945" d="M0 0v945h945v-945h-945z" />
<glyph unicode="&#xfb01;" horiz-adv-x="973" d="M55 860v86h140v387q0 202 53 289.5t178 87.5q25 0 45.5 -4t44.5 -14v-92q-27 13 -45.5 18.5t-36.5 5.5q-85 0 -116 -57.5t-31 -227.5v-393h198v-86h-198v-860h-92v860h-140zM649 1290q0 34 24 58t58 24t58 -24t24 -58t-24 -58t-58 -24t-58 24t-24 58zM686 0v946h92v-946 h-92z" />
<glyph unicode="&#xfb02;" horiz-adv-x="899" d="M55 860v86h140v387q0 202 53 289.5t178 87.5q25 0 45.5 -4t44.5 -14v-92q-27 13 -45.5 18.5t-36.5 5.5q-85 0 -116 -57.5t-31 -227.5v-393h198v-86h-198v-860h-92v860h-140zM623 0v1690h92v-1690h-92z" />
</font>
</defs>
</svg>
